# File created by Blade
# Date/Time:  Mon Sep 22 17:23:16 2014
# Frame Rate: 120.000 fps
#------------------------------------------------------
:FULLY-SPECIFIED
:DEGREES
2436
root 1.726103 37.148237 0.257628 -23.370652 -17.350539 -6.197590
RightUpLeg -73.544297 -35.977899 0.201420
RightLeg 113.021897 -0.000000 -0.000000
RightFoot 5.546554 -17.020822 18.958450
RightToeBase 2.994003 -0.000000 -0.000000
LeftUpLeg 25.106010 3.854047 -1.842364
LeftLeg 15.490922 -0.000000 -0.000000
LeftFoot -21.745640 24.823630 -13.777533
LeftToeBase 1.367571 -0.000000 -0.000000
Spine 33.120801 1.341111 -17.350058
RightShoulder 7.671456 -25.259892 -11.369530
RightArm 37.333414 -31.834358 52.854913
RightForeArm -174.454958 -0.000000 106.211812
RightHand 100.422962 -0.000000 -166.754506
RightHandThumb1 -24.326973 -0.000000 -32.862282
LeftShoulder -13.306779 25.814157 10.669401
LeftArm 68.067546 -28.105767 -58.358620
LeftForeArm 58.985787 0.000000 104.493934
LeftHand -25.740644 -0.000000 -23.179805
LeftHandThumb1 -26.253704 0.000000 33.147579
Head 1.582381 13.143685 18.282146
2437
root 1.717118 37.152224 0.284100 -23.281815 -17.348388 -6.358080
RightUpLeg -72.872515 -35.996788 -0.568680
RightLeg 113.045213 -0.000000 -0.000000
RightFoot 6.023132 -16.822456 19.092751
RightToeBase 3.015309 -0.000000 -0.000000
LeftUpLeg 25.116235 3.658807 -1.786431
LeftLeg 15.478744 -0.000000 -0.000000
LeftFoot -21.805407 24.958711 -13.761148
LeftToeBase 1.355914 -0.000000 -0.000000
Spine 32.924879 1.361207 -16.983554
RightShoulder 7.742483 -25.291882 -11.436669
RightArm 37.274304 -31.839076 52.947987
RightForeArm -174.699243 0.000000 106.112419
RightHand 100.341748 0.000000 -166.843227
RightHandThumb1 -24.326973 -0.000000 -32.862282
LeftShoulder -13.363895 25.955758 10.647204
LeftArm 68.082602 -27.894610 -58.139373
LeftForeArm 58.882365 -0.000000 104.388902
LeftHand -25.691222 -0.000000 -23.179719
LeftHandThumb1 -26.253704 0.000000 33.147579
Head 1.793348 13.027596 18.403784
2438
root 1.709168 37.155413 0.308883 -23.169622 -17.350587 -6.502751
RightUpLeg -72.166873 -35.935130 -1.442029
RightLeg 113.045555 -0.000000 -0.000000
RightFoot 6.594578 -16.683362 19.180492
RightToeBase 2.917454 -0.000000 -0.000000
LeftUpLeg 25.095213 3.468357 -1.740875
LeftLeg 15.470242 -0.000000 -0.000000
LeftFoot -21.879545 25.051877 -13.770026
LeftToeBase 1.328394 -0.000000 -0.000000
Spine 32.689052 1.423441 -16.603090
RightShoulder 7.780426 -25.317363 -11.488917
RightArm 37.260144 -31.888835 52.986389
RightForeArm -175.073976 -0.000000 105.979228
RightHand 100.186178 0.000000 -166.688186
RightHandThumb1 -24.326973 -0.000000 -32.862282
LeftShoulder -13.404605 26.020419 10.632581
LeftArm 68.057120 -27.614933 -57.843335
LeftForeArm 58.698390 0.000000 104.251775
LeftHand -25.654838 -0.000000 -23.102277
LeftHandThumb1 -26.253704 0.000000 33.147579
Head 2.003553 12.822647 18.537391
2439
root 1.699684 37.158514 0.330647 -23.013381 -17.356146 -6.665609
RightUpLeg -71.411730 -35.789405 -2.394241
RightLeg 113.034915 -0.000000 -0.000000
RightFoot 7.178044 -16.543555 19.286089
RightToeBase 3.065427 -0.000000 -0.000000
LeftUpLeg 25.023670 3.283369 -1.665965
LeftLeg 15.482201 -0.000000 -0.000000
LeftFoot -21.939410 25.127289 -13.750393
LeftToeBase 1.243740 -0.000000 -0.000000
Spine 32.400628 1.504530 -16.188011
RightShoulder 7.843138 -25.368868 -11.518805
RightArm 37.135993 -31.905217 53.092881
RightForeArm -175.448265 -0.000000 105.890146
RightHand 100.168528 -0.000000 -166.774746
RightHandThumb1 -24.326973 -0.000000 -32.862282
LeftShoulder -13.408225 26.086548 10.658212
LeftArm 68.011848 -27.311990 -57.547348
LeftForeArm 58.512678 -0.000000 104.114800
LeftHand -25.529297 -0.000000 -23.072397
LeftHandThumb1 -26.253704 0.000000 33.147579
Head 2.240635 12.593136 18.671073
2440
root 1.688257 37.163851 0.349917 -22.830629 -17.394328 -6.860514
RightUpLeg -70.577851 -35.556866 -3.437824
RightLeg 113.006846 -0.000000 -0.000000
RightFoot 7.825760 -16.356170 19.469837
RightToeBase 2.898340 -0.000000 -0.000000
LeftUpLeg 24.948963 3.087179 -1.560302
LeftLeg 15.469695 -0.000000 -0.000000
LeftFoot -22.019842 25.203336 -13.765817
LeftToeBase 1.269387 -0.000000 -0.000000
Spine 32.087708 1.629547 -15.700101
RightShoulder 7.862842 -25.454515 -11.526086
RightArm 37.091429 -31.924270 53.131865
RightForeArm -175.922035 -0.000000 105.754151
RightHand 100.048526 -0.000000 -166.633127
RightHandThumb1 -24.326973 -0.000000 -32.862282
LeftShoulder -13.468145 26.230519 10.609897
LeftArm 68.104319 -27.001597 -57.232440
LeftForeArm 58.312268 0.000000 103.897577
LeftHand -25.474891 -0.000000 -22.872358
LeftHandThumb1 -26.253704 0.000000 33.147579
Head 2.467394 12.348851 18.852210
2441
root 1.675389 37.169057 0.372891 -22.626350 -17.405679 -7.089612
RightUpLeg -69.656241 -35.290870 -4.584099
RightLeg 112.977298 -0.000000 -0.000000
RightFoot 8.489371 -16.200071 19.519244
RightToeBase 2.945978 -0.000000 -0.000000
LeftUpLeg 24.862336 2.996203 -1.337352
LeftLeg 15.478566 -0.000000 -0.000000
LeftFoot -22.067404 25.115089 -13.690962
LeftToeBase 1.270215 -0.000000 -0.000000
Spine 31.744370 1.785425 -15.134048
RightShoulder 7.833854 -25.586587 -11.509685
RightArm 37.038547 -31.937243 53.148820
RightForeArm -176.378878 0.000000 105.624906
RightHand 99.957387 -0.000000 -166.602307
RightHandThumb1 -24.326973 -0.000000 -32.862282
LeftShoulder -13.424637 26.365616 10.586033
LeftArm 68.155056 -26.689979 -56.868873
LeftForeArm 58.086480 -0.000000 103.679541
LeftHand -25.400510 -0.000000 -22.614700
LeftHandThumb1 -26.253704 0.000000 33.147579
Head 2.714978 11.975883 19.025412
2442
root 1.668536 37.177959 0.399824 -22.436715 -17.393060 -7.294064
RightUpLeg -68.580985 -34.923419 -5.971476
RightLeg 112.948610 -0.000000 -0.000000
RightFoot 9.202357 -15.962890 19.350316
RightToeBase 3.011474 -0.000000 -0.000000
LeftUpLeg 24.823557 2.765896 -1.239264
LeftLeg 15.400136 -0.000000 -0.000000
LeftFoot -22.084143 25.176946 -13.668683
LeftToeBase 1.207029 -0.000000 -0.000000
Spine 31.377570 1.973699 -14.579023
RightShoulder 7.828070 -25.698250 -11.464545
RightArm 36.881245 -31.948557 53.226362
RightForeArm -176.987692 -0.000000 105.490677
RightHand 99.846623 -0.000000 -166.534417
RightHandThumb1 -24.326973 -0.000000 -32.862282
LeftShoulder -13.335017 26.448074 10.618081
LeftArm 68.176098 -26.277254 -56.498829
LeftForeArm 57.886732 0.000000 103.417462
LeftHand -25.397419 -0.000000 -22.389770
LeftHandThumb1 -26.253704 0.000000 33.147579
Head 3.017546 11.584543 19.239203
2443
root 1.657670 37.187997 0.430122 -22.229719 -17.385428 -7.542129
RightUpLeg -67.434974 -34.487423 -7.396026
RightLeg 112.935370 -0.000000 -0.000000
RightFoot 9.827539 -15.805449 18.990049
RightToeBase 3.110357 -0.000000 -0.000000
LeftUpLeg 24.807824 2.468594 -1.128309
LeftLeg 15.280750 -0.000000 -0.000000
LeftFoot -22.115454 25.306597 -13.646478
LeftToeBase 1.156611 -0.000000 -0.000000
Spine 30.989727 2.115523 -13.978651
RightShoulder 7.855947 -25.895224 -11.438283
RightArm 36.827661 -31.918961 53.211903
RightForeArm -177.403508 -0.000000 105.365041
RightHand 99.727391 -0.000000 -166.394324
RightHandThumb1 -24.326973 -0.000000 -32.862282
LeftShoulder -13.317300 26.615541 10.570704
LeftArm 68.254709 -25.899169 -56.101283
LeftForeArm 57.675155 -0.000000 103.131348
LeftHand -25.314316 -0.000000 -22.162783
LeftHandThumb1 -26.253704 0.000000 33.147579
Head 3.354153 11.157104 19.444111
2444
root 1.645643 37.200663 0.458714 -21.998007 -17.324367 -7.841988
RightUpLeg -66.160989 -33.993515 -8.940382
RightLeg 112.936228 -0.000000 -0.000000
RightFoot 10.309266 -15.687388 18.600283
RightToeBase 3.171047 -0.000000 -0.000000
LeftUpLeg 24.727009 2.243918 -0.904330
LeftLeg 15.264459 -0.000000 -0.000000
LeftFoot -22.152624 25.275306 -13.614292
LeftToeBase 1.076319 -0.000000 -0.000000
Spine 30.605979 2.179924 -13.354537
RightShoulder 7.891402 -26.075215 -11.390537
RightArm 36.761104 -31.879325 53.193808
RightForeArm -177.987666 -0.000000 105.206494
RightHand 99.557070 -0.000000 -166.621978
RightHandThumb1 -24.326973 -0.000000 -32.862282
LeftShoulder -13.347315 26.737521 10.496428
LeftArm 68.304601 -25.458460 -55.662414
LeftForeArm 57.492965 -0.000000 102.818510
LeftHand -25.231505 -0.000000 -21.926521
LeftHandThumb1 -26.253704 0.000000 33.147579
Head 3.686191 10.806203 19.644652
2445
root 1.636824 37.212743 0.492478 -21.721384 -17.214446 -8.172531
RightUpLeg -64.825240 -33.462326 -10.587726
RightLeg 112.969549 -0.000000 -0.000000
RightFoot 10.679234 -15.622250 18.138009
RightToeBase 3.200737 -0.000000 -0.000000
LeftUpLeg 24.618664 1.895344 -0.728022
LeftLeg 15.233937 -0.000000 -0.000000
LeftFoot -22.228185 25.364574 -13.573964
LeftToeBase 1.094067 -0.000000 -0.000000
Spine 30.152435 2.175775 -12.687544
RightShoulder 7.947801 -26.215866 -11.343182
RightArm 36.624273 -31.899027 53.167694
RightForeArm -178.540042 -0.000000 105.066583
RightHand 99.399422 -0.000000 -166.661316
RightHandThumb1 -24.326973 -0.000000 -32.862282
LeftShoulder -13.381111 26.921078 10.397157
LeftArm 68.361218 -24.990965 -55.198182
LeftForeArm 57.298542 0.000000 102.475407
LeftHand -25.236489 -0.000000 -21.526028
LeftHandThumb1 -26.253704 0.000000 33.147579
Head 4.090452 10.438413 19.897479
2446
root 1.613372 37.231533 0.517233 -21.435461 -17.210667 -8.571518
RightUpLeg -63.425064 -32.659576 -12.170491
RightLeg 113.018916 -0.000000 -0.000000
RightFoot 10.891336 -15.732855 17.604389
RightToeBase 3.277027 -0.000000 -0.000000
LeftUpLeg 24.516732 1.719947 -0.359216
LeftLeg 15.215037 -0.000000 -0.000000
LeftFoot -22.274385 25.339473 -13.524595
LeftToeBase 1.088896 -0.000000 -0.000000
Spine 29.695898 2.308286 -11.923377
RightShoulder 7.946453 -26.409925 -11.239860
RightArm 36.584974 -31.896677 53.065907
RightForeArm -179.213268 0.000000 104.887998
RightHand 99.262210 -0.000000 -166.551670
RightHandThumb1 -24.326973 -0.000000 -32.862282
LeftShoulder -13.388340 27.094876 10.358669
LeftArm 68.473283 -24.478801 -54.760009
LeftForeArm 57.100009 -0.000000 102.073342
LeftHand -25.240007 -0.000000 -21.141748
LeftHandThumb1 -26.253704 0.000000 33.147579
Head 4.472146 9.994136 20.175958
2447
root 1.590241 37.250243 0.545492 -21.117037 -17.139146 -8.971290
RightUpLeg -61.999408 -31.811595 -13.834935
RightLeg 113.141924 -0.000000 -0.000000
RightFoot 10.968324 -15.920044 16.743797
RightToeBase 2.958842 -0.000000 -0.000000
LeftUpLeg 24.366490 1.480678 -0.021070
LeftLeg 15.222397 -0.000000 -0.000000
LeftFoot -22.326125 25.340649 -13.456531
LeftToeBase 1.073387 -0.000000 -0.000000
Spine 29.171340 2.363626 -11.197428
RightShoulder 7.972131 -26.647124 -11.097773
RightArm 36.614501 -31.905390 52.855740
RightForeArm -179.939973 -0.000000 104.715822
RightHand 99.060409 -0.000000 -166.544752
RightHandThumb1 -24.326973 -0.000000 -32.862282
LeftShoulder -13.429179 27.264938 10.329932
LeftArm 68.604791 -23.910812 -54.393003
LeftForeArm 57.018572 0.000000 101.617825
LeftHand -25.016154 -0.000000 -20.805455
LeftHandThumb1 -26.253704 0.000000 33.147579
Head 4.941788 9.502008 20.471406
